<svg width="512" height="512" viewBox="0 0 512 512" fill="none" xmlns="http://www.w3.org/2000/svg">
  <defs>
    <linearGradient id="bg_grad" x1="0" y1="0" x2="512" y2="512" gradientUnits="userSpaceOnUse">
      <stop offset="0" stop-color="#1e1b4b"/> <stop offset="1" stop-color="#312e81"/> </linearGradient>
    
    <filter id="glow" x="-20%" y="-20%" width="140%" height="140%">
      <feGaussianBlur stdDeviation="6" result="coloredBlur"/>
      <feMerge>
        <feMergeNode in="coloredBlur"/>
        <feMergeNode in="SourceGraphic"/>
      </feMerge>
    </filter>
  </defs>

  <path d="M256 24 L478 144 V368 L256 488 L34 368 V144 Z" fill="url(#bg_grad)" stroke="#4338ca" stroke-width="8"/>

  <g opacity="0.2" stroke="white" stroke-width="2" stroke-dasharray="5 5">
    <path d="M100 144 H412"/> <path d="M100 204 H412"/>
    <path d="M100 264 H412"/> <path d="M100 324 H412"/>
    <path d="M156 100 V412"/> <path d="M256 100 V412"/>
    <path d="M356 100 V412"/>
  </g>

  <g stroke="white" stroke-width="6" stroke-linecap="round">
    <path d="M130 400 L130 130"/>
    <path d="M130 400 L400 400"/>
  </g>

  <g filter="url(#glow)">
      <path d="M150 370 C 200 350, 250 200, 380 160" 
            stroke="#f472b6" stroke-width="10" fill="none" stroke-linecap="round"/>
      
      <path d="M380 190 C 280 220, 220 320, 150 340" 
            stroke="#60a5fa" stroke-width="10" fill="none" stroke-linecap="round" stroke-dasharray="20 15"/>
  </g>

  <rect x="140" y="360" width="20" height="20" fill="white"/>
  <rect x="250" y="265" width="20" height="20" fill="white"/>
  <rect x="370" y="150" width="20" height="20" fill="white"/>

  <circle cx="150" cy="340" r="10" fill="#93c5fd" stroke="white" stroke-width="3"/>
  <circle cx="260" cy="260" r="10" fill="#93c5fd" stroke="white" stroke-width="3"/>
  <circle cx="380" cy="190" r="10" fill="#93c5fd" stroke="white" stroke-width="3"/>

</svg>